# xmcd CD database file
#
# Track frame offsets:
#	150
#	15240
#	28002
#	49182
#	99982
#	120395
#	132657
#	154125
#	170480
#	191332
#	203580
#	216355
#
# Disc length: 3143 seconds
#
# Revision: 0
# Processed by: cddbd v1.4PL0 Copyright (c) Steve Scherf et al.
# Submitted via: CDex 1.50
#
DISCID=9b0c450c
DTITLE=Uncle Art - Transmogrified
DYEAR=1997
DGENRE=Jazz
TTITLE0=At the Moment
TTITLE1=Cat Paw Skipper
TTITLE2=Carmine
TTITLE3=Polar Patrol
TTITLE4=Song for Winchester
TTITLE5=Eastbound Local
TTITLE6=Metro Dreams
TTITLE7=Jupiter Jubilee
TTITLE8=News to Me
TTITLE9=Transmogrified
TTITLE10=No Doubt
TTITLE11=Trip Trigger Avenue
EXTD=YEAR: 1997
EXTT0=
EXTT1=
EXTT2=
EXTT3=
EXTT4=
EXTT5=
EXTT6=
EXTT7=
EXTT8=
EXTT9=
EXTT10=
EXTT11=
PLAYORDER=
